<?xml version="1.0" encoding="utf-8"?>
<svg xmlns="http://www.w3.org/2000/svg" xmlns:xlink="http://www.w3.org/1999/xlink" style="margin: auto; background: rgb(83, 29, 171); display: block; z-index: 1; position: relative; shape-rendering: auto;" width="1195" height="959" preserveAspectRatio="xMidYMid" viewBox="0 0 1195 959">
<g transform="translate(597.5,479.5) scale(1,1) translate(-597.5,-479.5)"><defs>
  <path id="path-dh2rnlsepxd-1" d="M-35 -35L35 -35L35 35L-35 35Z" fill="none" stroke="inherit" stroke-width="4.333333333333334" transform="scale(0.3)"></path>
  <path id="path-dh2rnlsepxd-2" d="M0 -37A37 37 0 0 1 0 37A37 37 0 0 1 0 -37" fill="none" stroke="inherit" stroke-width="4.333333333333334" transform="scale(0.3)"></path>
  <path id="path-dh2rnlsepxd-3" d="M0 -34.641L40 34.641L-40 34.641Z" fill="none" stroke="inherit" stroke-width="4.333333333333334" transform="scale(0.3)"></path>
</defs><path id="path0" d="M 67.74879202264226 105.77355325765497
c 0 30.315113670402067 -7.417527812970717 8.707532650009105 -16.12506046297982 8.707532650009105
S 35.49867109668263 136.08866692805702 35.49867109668263 105.77355325765497
s 7.417527812970717 -8.707532650009105 16.12506046297982 -8.707532650009105
S 67.74879202264226 75.4584395872529 67.74879202264226 105.77355325765497
z" fill="none" stroke="none"></path>
<use xlink:href="#path-dh2rnlsepxd-3" x="0" y="0" stroke="#b37feb">
  <animateMotion begin="-1.8508114999991265s" dur="19.3598343878297s" keyPoints="0;1" keyTimes="0;1" repeatCount="indefinite" calcMode="linear">
    <mpath xlink:href="#path0"></mpath>
  </animateMotion>
</use><path id="path1" d="M 144.09952640562489 182.37472541523394
c 0 26.464079671686317 -6.475253536689205 7.601384586548197 -14.076638123237402 7.601384586548197
S 115.9462501591501 208.83880508692025 115.9462501591501 182.37472541523394
s 6.475253536689205 -7.601384586548197 14.076638123237402 -7.601384586548197
S 144.09952640562489 155.91064574354763 144.09952640562489 182.37472541523394
z" fill="none" stroke="none"></path>
<use xlink:href="#path-dh2rnlsepxd-2" x="0" y="0" stroke="#b37feb">
  <animateMotion begin="-3.465934019102307s" dur="13.111454332945886s" keyPoints="1;0" keyTimes="0;1" repeatCount="indefinite" calcMode="linear">
    <mpath xlink:href="#path1"></mpath>
  </animateMotion>
</use><path id="path2" d="M 226.33252943905381 895.5534865291278
c 0 48.74526861633925 -11.927033810380879 14.00130056001234 -25.928334370393216 14.00130056001234
S 174.4758606982674 944.298755145467 174.4758606982674 895.5534865291278
s 11.927033810380879 -14.00130056001234 25.928334370393216 -14.00130056001234
S 226.33252943905381 846.8082179127886 226.33252943905381 895.5534865291278
z" fill="none" stroke="none"></path>
<use xlink:href="#path-dh2rnlsepxd-3" x="0" y="0" stroke="#b37feb">
  <animateMotion begin="-3.6573101957626344s" dur="18.36311017502359s" keyPoints="1;0" keyTimes="0;1" repeatCount="indefinite" calcMode="linear">
    <mpath xlink:href="#path2"></mpath>
  </animateMotion>
</use><path id="path3" d="M 235.3811736281096 441.1254466096287
c 0 32.188464986988215 -7.875901007454563 9.245622921794489 -17.12152392924905 9.245622921794489
S 201.13812576961146 473.3139115966169 201.13812576961146 441.1254466096287
s 7.875901007454563 -9.245622921794489 17.12152392924905 -9.245622921794489
S 235.3811736281096 408.9369816226405 235.3811736281096 441.1254466096287
z" fill="none" stroke="none"></path>
<use xlink:href="#path-dh2rnlsepxd-2" x="0" y="0" stroke="#b37feb">
  <animateMotion begin="-4.864858190533731s" dur="11.067045873428732s" keyPoints="0;1" keyTimes="0;1" repeatCount="indefinite" calcMode="linear">
    <mpath xlink:href="#path3"></mpath>
  </animateMotion>
</use><path id="path4" d="M 358.9059174334489 884.4302886373589
c 0 60.04562866364986 -14.692015524084537 17.24714865870794 -31.939164182792474 17.24714865870794
S 295.02758906786397 944.4759173010087 295.02758906786397 884.4302886373589
s 14.692015524084537 -17.24714865870794 31.939164182792474 -17.24714865870794
S 358.9059174334489 824.3846599737091 358.9059174334489 884.4302886373589
z" fill="none" stroke="none"></path>
<use xlink:href="#path-dh2rnlsepxd-1" x="0" y="0" stroke="#b37feb">
  <animateMotion begin="-0.49355062945281136s" dur="11.301825646687105s" keyPoints="1;0" keyTimes="0;1" repeatCount="indefinite" calcMode="linear">
    <mpath xlink:href="#path4"></mpath>
  </animateMotion>
</use><path id="path5" d="M 367.0326675792779 34.71087787755756
c 0 41.22206642526054 -10.086250295542472 11.840380781723773 -21.926631077266244 11.840380781723773
S 323.1794054247455 75.9329443028181 323.1794054247455 34.71087787755756
s 10.086250295542472 -11.840380781723773 21.926631077266244 -11.840380781723773
S 367.0326675792779 -6.511188547702986 367.0326675792779 34.71087787755756
z" fill="none" stroke="none"></path>
<use xlink:href="#path-dh2rnlsepxd-2" x="0" y="0" stroke="#b37feb">
  <animateMotion begin="-4.598377448689367s" dur="14.713171993071981s" keyPoints="1;0" keyTimes="0;1" repeatCount="indefinite" calcMode="linear">
    <mpath xlink:href="#path5"></mpath>
  </animateMotion>
</use><path id="path6" d="M 475.76210589403115 146.71011589290836
c 0 45.37041907574881 -11.101272752576836 13.031928883459765 -24.133201636036603 13.031928883459765
S 427.4957026219579 192.08053496865716 427.4957026219579 146.71011589290836
s 11.101272752576836 -13.031928883459765 24.133201636036603 -13.031928883459765
S 475.76210589403115 101.33969681715955 475.76210589403115 146.71011589290836
z" fill="none" stroke="none"></path>
<use xlink:href="#path-dh2rnlsepxd-2" x="0" y="0" stroke="#b37feb">
  <animateMotion begin="-2.8183142199248823s" dur="14.550733588043025s" keyPoints="0;1" keyTimes="0;1" repeatCount="indefinite" calcMode="linear">
    <mpath xlink:href="#path6"></mpath>
  </animateMotion>
</use><path id="path7" d="M 532.343024599363 128.91712144872568
c 0 57.639054770175676 -14.10317297568128 16.555898710582376 -30.659071686263655 16.555898710582376
S 471.02488122683576 186.55617621890136 471.02488122683576 128.91712144872568
s 14.10317297568128 -16.555898710582376 30.659071686263655 -16.555898710582376
S 532.343024599363 71.27806667855 532.343024599363 128.91712144872568
z" fill="none" stroke="none"></path>
<use xlink:href="#path-dh2rnlsepxd-1" x="0" y="0" stroke="#b37feb">
  <animateMotion begin="-4.30248944997016s" dur="18.418848993493025s" keyPoints="1;0" keyTimes="0;1" repeatCount="indefinite" calcMode="linear">
    <mpath xlink:href="#path7"></mpath>
  </animateMotion>
</use><path id="path8" d="M 625.3622725625396 534.457302524126
c 0 65.37333242473053 -15.995602614561726 18.777446547528985 -34.77304916209071 18.777446547528985
S 555.8161742383581 599.8306349488565 555.8161742383581 534.457302524126
s 15.995602614561726 -18.777446547528985 34.77304916209071 -18.777446547528985
S 625.3622725625396 469.0839700993955 625.3622725625396 534.457302524126
z" fill="none" stroke="none"></path>
<use xlink:href="#path-dh2rnlsepxd-1" x="0" y="0" stroke="#b37feb">
  <animateMotion begin="-4.877545215904343s" dur="15.469371146790538s" keyPoints="1;0" keyTimes="0;1" repeatCount="indefinite" calcMode="linear">
    <mpath xlink:href="#path8"></mpath>
  </animateMotion>
</use><path id="path9" d="M 637.9047477607702 463.29254803487527
c 0 19.313009565428928 -4.725523617073035 5.547353811346607 -10.272877428419642 5.547353811346607
S 617.3589929039309 482.6055576003042 617.3589929039309 463.29254803487527
s 4.725523617073035 -5.547353811346607 10.272877428419642 -5.547353811346607
S 637.9047477607702 443.9795384694463 637.9047477607702 463.29254803487527
z" fill="none" stroke="none"></path>
<use xlink:href="#path-dh2rnlsepxd-3" x="0" y="0" stroke="#b37feb">
  <animateMotion begin="-1.4695680449165383s" dur="18.882525512159468s" keyPoints="0;1" keyTimes="0;1" repeatCount="indefinite" calcMode="linear">
    <mpath xlink:href="#path9"></mpath>
  </animateMotion>
</use><path id="path10" d="M 695.1223127992367 220.59233609507766
c 0 39.641529841651035 -9.69952325912738 11.386396869410403 -21.085920128537783 11.386396869410403
S 652.9504725421613 260.2338659367287 652.9504725421613 220.59233609507766
s 9.69952325912738 -11.386396869410403 21.085920128537783 -11.386396869410403
S 695.1223127992367 180.9508062534266 695.1223127992367 220.59233609507766
z" fill="none" stroke="none"></path>
<use xlink:href="#path-dh2rnlsepxd-1" x="0" y="0" stroke="#b37feb">
  <animateMotion begin="-2.9109440838448797s" dur="16.66483628182317s" keyPoints="1;0" keyTimes="0;1" repeatCount="indefinite" calcMode="linear">
    <mpath xlink:href="#path10"></mpath>
  </animateMotion>
</use><path id="path11" d="M 767.1063397864176 893.0555611285523
c 0 48.52597825949479 -11.873377659238088 13.938312904322974 -25.81169056356106 13.938312904322974
S 715.4829586592954 941.5815393880471 715.4829586592954 893.0555611285523
s 11.873377659238088 -13.938312904322974 25.81169056356106 -13.938312904322974
S 767.1063397864176 844.5295828690575 767.1063397864176 893.0555611285523
z" fill="none" stroke="none"></path>
<use xlink:href="#path-dh2rnlsepxd-2" x="0" y="0" stroke="#b37feb">
  <animateMotion begin="-1.821440501710171s" dur="16.59660069070807s" keyPoints="0;1" keyTimes="0;1" repeatCount="indefinite" calcMode="linear">
    <mpath xlink:href="#path11"></mpath>
  </animateMotion>
</use><path id="path12" d="M 822.8605133379524 75.91239624707617
c 0 33.28202159590982 -8.143473369211975 9.559729607335798 -17.703202976547775 9.559729607335798
S 787.4541073848568 109.19441784298598 787.4541073848568 75.91239624707617
s 8.143473369211975 -9.559729607335798 17.703202976547775 -9.559729607335798
S 822.8605133379524 42.630374651166356 822.8605133379524 75.91239624707617
z" fill="none" stroke="none"></path>
<use xlink:href="#path-dh2rnlsepxd-1" x="0" y="0" stroke="#b37feb">
  <animateMotion begin="-2.5903016667592746s" dur="14.3623979876076s" keyPoints="0;1" keyTimes="0;1" repeatCount="indefinite" calcMode="linear">
    <mpath xlink:href="#path12"></mpath>
  </animateMotion>
</use><path id="path13" d="M 933.2517985821526 729.9613790283287
c 0 64.40135691483242 -15.757778819586653 18.498262092558246 -34.2560409121449 18.498262092558246
S 864.7397167578629 794.362735943161 864.7397167578629 729.9613790283287
s 15.757778819586653 -18.498262092558246 34.2560409121449 -18.498262092558246
S 933.2517985821526 665.5600221134963 933.2517985821526 729.9613790283287
z" fill="none" stroke="none"></path>
<use xlink:href="#path-dh2rnlsepxd-2" x="0" y="0" stroke="#b37feb">
  <animateMotion begin="-0.7933395995904124s" dur="11.641030849356259s" keyPoints="0;1" keyTimes="0;1" repeatCount="indefinite" calcMode="linear">
    <mpath xlink:href="#path13"></mpath>
  </animateMotion>
</use><path id="path14" d="M 937.7224535121032 734.874372315959
c 0 27.171017083530487 -6.648227584268097 7.804441077184289 -14.452668661452385 7.804441077184289
S 908.8171161891984 762.0453893994895 908.8171161891984 734.874372315959
s 6.648227584268097 -7.804441077184289 14.452668661452385 -7.804441077184289
S 937.7224535121032 707.7033552324285 937.7224535121032 734.874372315959
z" fill="none" stroke="none"></path>
<use xlink:href="#path-dh2rnlsepxd-1" x="0" y="0" stroke="#b37feb">
  <animateMotion begin="-3.5651585930595733s" dur="10.76802624030963s" keyPoints="1;0" keyTimes="0;1" repeatCount="indefinite" calcMode="linear">
    <mpath xlink:href="#path14"></mpath>
  </animateMotion>
</use><path id="path15" d="M 1020.7859318547069 521.537600049296
c 0 41.72016695039626 -10.20812595594802 11.983452209156374 -22.191578165104392 11.983452209156374
S 976.4027755244981 563.2577669996922 976.4027755244981 521.537600049296
s 10.20812595594802 -11.983452209156374 22.191578165104392 -11.983452209156374
S 1020.7859318547069 479.8174330988997 1020.7859318547069 521.537600049296
z" fill="none" stroke="none"></path>
<use xlink:href="#path-dh2rnlsepxd-3" x="0" y="0" stroke="#b37feb">
  <animateMotion begin="-4.615880571839357s" dur="18.552582349642645s" keyPoints="0;1" keyTimes="0;1" repeatCount="indefinite" calcMode="linear">
    <mpath xlink:href="#path15"></mpath>
  </animateMotion>
</use><path id="path16" d="M 1139.2708971949935 838.0635735102468
c 0 57.81277061968255 -14.1456779175819 16.6057958162918 -30.7514737338737 16.6057958162918
S 1077.7679497272459 895.8763441299293 1077.7679497272459 838.0635735102468
s 14.1456779175819 -16.6057958162918 30.7514737338737 -16.6057958162918
S 1139.2708971949935 780.2508028905643 1139.2708971949935 838.0635735102468
z" fill="none" stroke="none"></path>
<use xlink:href="#path-dh2rnlsepxd-2" x="0" y="0" stroke="#b37feb">
  <animateMotion begin="-0.49524850119302744s" dur="11.101111093157458s" keyPoints="1;0" keyTimes="0;1" repeatCount="indefinite" calcMode="linear">
    <mpath xlink:href="#path16"></mpath>
  </animateMotion>
</use><path id="path17" d="M 1154.5250889900685 117.01950499925496
c 0 30.611235079156284 -7.48998305128292 8.792588799332124 -16.282571850615042 8.792588799332124
S 1121.9599452888383 147.63074007841124 1121.9599452888383 117.01950499925496
s 7.48998305128292 -8.792588799332124 16.282571850615042 -8.792588799332124
S 1154.5250889900685 86.40826992009868 1154.5250889900685 117.01950499925496
z" fill="none" stroke="none"></path>
<use xlink:href="#path-dh2rnlsepxd-2" x="0" y="0" stroke="#b37feb">
  <animateMotion begin="-2.9527911055149225s" dur="12.308036743824298s" keyPoints="0;1" keyTimes="0;1" repeatCount="indefinite" calcMode="linear">
    <mpath xlink:href="#path17"></mpath>
  </animateMotion>
</use></g>
</svg>